# Blender 5.2.0 LTS
# www.blender.org
mtllib pixel ak body.mtl
o 17662016762
v -1.751109 0.323569 -0.019714
v -1.159703 0.323569 -0.019714
v -1.751109 0.323569 0.019713
v -1.159703 0.323569 0.019713
v -1.751109 0.362996 -0.019714
v -1.317412 0.402423 -0.019714
v -1.317412 0.441850 -0.019714
v -1.159703 0.362996 -0.019714
v -1.159703 0.402423 -0.019714
v -1.159703 0.441850 -0.019714
v -1.751109 0.362996 0.019713
v -1.317412 0.402423 0.019713
v -1.317412 0.441850 0.019713
v -1.159703 0.362996 0.019713
v -1.159703 0.402423 0.019713
v -1.159703 0.441850 0.019713
v -0.528870 0.244715 -0.137995
v -0.371162 0.205288 -0.137995
v -0.371162 0.244715 -0.137995
v -0.055745 0.165861 -0.137995
v -0.055745 0.205288 -0.137995
v 0.259671 0.165861 -0.137995
v 0.259671 0.205288 -0.137995
v 0.338526 0.205288 -0.137995
v -0.528870 0.244715 0.137995
v -0.371162 0.205288 0.137995
v -0.371162 0.244715 0.137995
v -0.055745 0.165861 0.137995
v -0.055745 0.205288 0.137995
v 0.259671 0.165861 0.137995
v 0.259671 0.205288 0.137995
v 0.338526 0.205288 0.137995
v -0.528870 0.362996 -0.137995
v -0.528870 0.362996 -0.098568
v -0.528870 0.441850 -0.098568
v -0.528870 0.441850 -0.059141
v -0.528870 0.520704 -0.059141
v 0.220244 0.441850 -0.059141
v 0.220244 0.520704 -0.059141
v 0.299099 0.402423 -0.098568
v 0.299099 0.441850 -0.098568
v 0.338526 0.362996 -0.137995
v 0.338526 0.362996 -0.098568
v 0.338526 0.402423 -0.098568
v -0.528870 0.362996 0.098568
v -0.528870 0.362996 0.137995
v -0.528870 0.441850 0.059141
v -0.528870 0.441850 0.098568
v -0.528870 0.520704 0.059141
v -0.371162 0.441850 0.019713
v -0.371162 0.441850 0.059141
v -0.371162 0.481277 0.019713
v -0.371162 0.481277 0.059141
v 0.180817 0.441850 0.019713
v 0.180817 0.441850 0.059141
v 0.180817 0.481277 0.019713
v 0.180817 0.481277 0.059141
v 0.220244 0.441850 0.059141
v 0.220244 0.520704 0.059141
v 0.299099 0.402423 0.098568
v 0.299099 0.441850 0.098568
v 0.338526 0.362996 0.098568
v 0.338526 0.362996 0.137995
v 0.338526 0.402423 0.098568
vn -0.0000 1.0000 -0.0000
vn -0.0000 -1.0000 -0.0000
vn -0.0000 -0.0000 1.0000
vn -1.0000 -0.0000 -0.0000
vn -0.0000 -0.0000 -1.0000
vn 1.0000 -0.0000 -0.0000
s 0
f 59//1 37//1 49//1
f 57//2 52//2 56//2
f 44//1 60//1 64//1
f 27//2 17//2 19//2
f 28//2 22//2 30//2
f 12//3 16//3 13//3
f 36//4 17//4 47//4
f 29//2 18//2 21//2
f 21//5 33//5 23//5
f 16//1 7//1 13//1
f 43//1 33//1 34//1
f 29//3 31//3 63//3
f 40//5 43//5 35//5
f 63//1 45//1 46//1
f 31//2 24//2 32//2
f 61//6 40//6 41//6
f 2//5 5//5 8//5
f 10//5 6//5 7//5
f 4//2 1//2 2//2
f 58//6 39//6 59//6
f 55//1 51//1 61//1
f 26//4 19//4 18//4
f 53//6 50//6 52//6
f 29//4 20//4 28//4
f 49//3 57//3 59//3
f 48//3 62//3 60//3
f 55//4 56//4 54//4
f 62//6 32//6 43//6
f 31//6 22//6 23//6
f 50//3 56//3 52//3
f 11//3 4//3 14//3
f 39//5 36//5 37//5
f 8//1 11//1 14//1
f 15//2 6//2 9//2
f 12//4 7//4 6//4
f 16//6 9//6 10//6
f 3//4 5//4 1//4
f 14//6 2//6 8//6
f 59//1 39//1 37//1
f 57//2 53//2 52//2
f 44//1 40//1 60//1
f 27//2 25//2 17//2
f 28//2 20//2 22//2
f 12//3 15//3 16//3
f 36//4 35//4 34//4
f 34//4 33//4 17//4
f 17//4 25//4 46//4
f 45//4 48//4 47//4
f 17//4 46//4 45//4
f 36//4 34//4 17//4
f 49//4 37//4 36//4
f 17//4 45//4 47//4
f 47//4 49//4 36//4
f 29//2 26//2 18//2
f 22//5 20//5 21//5
f 21//5 18//5 19//5
f 19//5 17//5 33//5
f 33//5 42//5 24//5
f 23//5 22//5 21//5
f 33//5 24//5 23//5
f 21//5 19//5 33//5
f 16//1 10//1 7//1
f 43//1 42//1 33//1
f 63//3 46//3 25//3
f 27//3 26//3 29//3
f 63//3 25//3 27//3
f 31//3 32//3 63//3
f 28//3 30//3 31//3
f 63//3 27//3 29//3
f 29//3 28//3 31//3
f 40//5 44//5 43//5
f 43//5 34//5 35//5
f 35//5 41//5 40//5
f 63//1 62//1 45//1
f 31//2 23//2 24//2
f 61//6 60//6 40//6
f 2//5 1//5 5//5
f 10//5 9//5 6//5
f 4//2 3//2 1//2
f 58//6 38//6 39//6
f 35//1 36//1 38//1
f 41//1 35//1 38//1
f 47//1 48//1 61//1
f 54//1 50//1 51//1
f 51//1 47//1 61//1
f 61//1 41//1 38//1
f 61//1 38//1 58//1
f 55//1 54//1 51//1
f 61//1 58//1 55//1
f 26//4 27//4 19//4
f 53//6 51//6 50//6
f 29//4 21//4 20//4
f 49//3 47//3 51//3
f 49//3 51//3 53//3
f 55//3 58//3 59//3
f 49//3 53//3 57//3
f 57//3 55//3 59//3
f 60//3 61//3 48//3
f 48//3 45//3 62//3
f 62//3 64//3 60//3
f 55//4 57//4 56//4
f 44//6 64//6 62//6
f 62//6 63//6 32//6
f 32//6 24//6 42//6
f 43//6 44//6 62//6
f 32//6 42//6 43//6
f 31//6 30//6 22//6
f 50//3 54//3 56//3
f 11//3 3//3 4//3
f 39//5 38//5 36//5
f 8//1 5//1 11//1
f 15//2 12//2 6//2
f 12//4 13//4 7//4
f 16//6 15//6 9//6
f 3//4 11//4 5//4
f 14//6 4//6 2//6
