# Blender 5.2.0 LTS
# www.blender.org
mtllib pixel ak bolt.mtl
o 17661950452.001
v 0.008306 -0.006921 -0.062457
v 0.008306 -0.006921 0.062457
v 0.008306 0.034717 -0.062457
v 0.008306 0.034717 0.062457
v 0.049944 -0.006921 -0.062457
v 0.049944 -0.006921 0.062457
v 0.049944 0.034717 -0.062457
v 0.049944 0.034717 0.062457
vn -0.0000 -1.0000 -0.0000
vn -0.0000 1.0000 -0.0000
vn -1.0000 -0.0000 -0.0000
vn 1.0000 -0.0000 -0.0000
vn -0.0000 -0.0000 -1.0000
vn -0.0000 -0.0000 1.0000
s 0
f 6//1 1//1 5//1
f 7//2 4//2 8//2
f 2//3 3//3 1//3
f 8//4 5//4 7//4
f 3//5 5//5 1//5
f 8//6 2//6 6//6
f 6//1 2//1 1//1
f 7//2 3//2 4//2
f 2//3 4//3 3//3
f 8//4 6//4 5//4
f 3//5 7//5 5//5
f 8//6 4//6 2//6
