# Blender 5.2.0 LTS
# www.blender.org
mtllib pixel ak mag.mtl
o 17662005453
v -0.323904 -0.206414 -0.114674
v -0.369774 -0.160544 -0.114674
v -0.369774 -0.114674 -0.114674
v -0.323904 -0.160544 -0.114674
v -0.323904 -0.114674 -0.114674
v -0.323904 -0.160544 -0.068805
v -0.323904 -0.114674 -0.068805
v -0.323904 -0.068805 -0.068805
v -0.232165 -0.298153 -0.114674
v -0.278035 -0.252284 -0.114674
v -0.278035 -0.206414 -0.114674
v -0.232165 -0.252284 -0.114674
v -0.232165 -0.206414 -0.114674
v -0.278035 -0.206414 -0.068805
v -0.232165 -0.252284 -0.068805
v -0.232165 -0.206414 -0.068805
v -0.186295 -0.298153 -0.114674
v -0.186295 -0.298153 -0.068805
v -0.140425 -0.298153 -0.068805
v -0.186295 -0.252284 -0.114674
v -0.186295 -0.206414 -0.114674
v -0.140425 -0.252284 -0.114674
v -0.140425 -0.206414 -0.114674
v -0.186295 -0.252284 -0.068805
v -0.186295 -0.206414 -0.068805
v -0.140425 -0.252284 -0.068805
v -0.140425 -0.206414 -0.068805
v -0.278035 -0.160544 -0.114674
v -0.278035 -0.114674 -0.114674
v -0.232165 -0.160544 -0.114674
v -0.232165 -0.114674 -0.114674
v -0.278035 -0.160544 -0.068805
v -0.278035 -0.114674 -0.068805
v -0.232165 -0.160544 -0.068805
v -0.232165 -0.114674 -0.068805
v -0.278035 -0.068805 -0.068805
v -0.278035 -0.022935 -0.068805
v -0.232165 -0.022935 -0.068805
v -0.140425 -0.160544 -0.114674
v -0.140425 -0.160544 -0.068805
v -0.186295 -0.022935 -0.114674
v -0.140425 -0.068805 -0.114674
v -0.140425 -0.022935 -0.114674
v -0.186295 -0.022935 -0.068805
v -0.140425 -0.068805 -0.068805
v -0.140425 -0.022935 -0.068805
v -0.323904 -0.206414 0.114674
v -0.323904 -0.160544 0.068805
v -0.323904 -0.114674 0.068805
v -0.369774 -0.160544 0.114674
v -0.369774 -0.114674 0.114674
v -0.323904 -0.160544 0.114674
v -0.323904 -0.114674 0.114674
v -0.323904 -0.068805 0.068805
v -0.232165 -0.298153 0.114674
v -0.278035 -0.206414 0.068805
v -0.232165 -0.252284 0.068805
v -0.232165 -0.206414 0.068805
v -0.278035 -0.252284 0.114674
v -0.278035 -0.206414 0.114674
v -0.232165 -0.252284 0.114674
v -0.232165 -0.206414 0.114674
v -0.186295 -0.298153 0.068805
v -0.140425 -0.298153 0.068805
v -0.186295 -0.298153 0.114674
v -0.186295 -0.252284 0.068805
v -0.186295 -0.206414 0.068805
v -0.140425 -0.252284 0.068805
v -0.140425 -0.206414 0.068805
v -0.186295 -0.252284 0.114674
v -0.186295 -0.206414 0.114674
v -0.140425 -0.252284 0.114674
v -0.140425 -0.206414 0.114674
v -0.278035 -0.160544 0.068805
v -0.278035 -0.114674 0.068805
v -0.232165 -0.160544 0.068805
v -0.232165 -0.114674 0.068805
v -0.278035 -0.160544 0.114674
v -0.278035 -0.114674 0.114674
v -0.232165 -0.160544 0.114674
v -0.232165 -0.114674 0.114674
v -0.278035 -0.068805 0.068805
v -0.278035 -0.022935 0.068805
v -0.232165 -0.022935 0.068805
v -0.140425 -0.160544 0.068805
v -0.140425 -0.160544 0.114674
v -0.186295 -0.022935 0.068805
v -0.140425 -0.068805 0.068805
v -0.140425 -0.022935 0.068805
v -0.186295 -0.022935 0.114674
v -0.140425 -0.068805 0.114674
v -0.140425 -0.022935 0.114674
v -0.232165 0.022935 -0.068805
v -0.186295 0.022935 -0.114674
v -0.140425 0.022935 -0.114674
v -0.140425 0.068805 -0.114674
v -0.186295 0.022935 -0.068805
v -0.140425 0.022935 -0.068805
v -0.140425 0.068805 -0.068805
v -0.140425 0.114674 -0.114674
v -0.186295 0.114674 -0.068805
v -0.140425 0.114674 -0.068805
v -0.140425 0.252283 -0.068805
v -0.232165 0.022935 0.068805
v -0.186295 0.022935 0.068805
v -0.140425 0.022935 0.068805
v -0.140425 0.068805 0.068805
v -0.186295 0.022935 0.114674
v -0.140425 0.022935 0.114674
v -0.140425 0.068805 0.114674
v -0.186295 0.114674 0.068805
v -0.140425 0.114674 0.068805
v -0.140425 0.114674 0.114674
v -0.140425 0.252283 0.068805
v -0.094556 -0.206414 -0.114674
v -0.094556 -0.252284 -0.068805
v -0.094556 -0.206414 -0.068805
v -0.048686 -0.206414 -0.068805
v -0.094556 -0.160544 -0.114674
v -0.094556 -0.160544 -0.068805
v -0.048686 -0.160544 -0.068805
v -0.094556 -0.068805 -0.114674
v -0.094556 -0.022935 -0.114674
v -0.048686 -0.068805 -0.114674
v -0.048686 -0.022935 -0.114674
v -0.094556 -0.068805 -0.068805
v -0.094556 -0.022935 -0.068805
v -0.048686 -0.068805 -0.068805
v -0.048686 -0.022935 -0.068805
v -0.002816 -0.160544 -0.068805
v -0.002816 -0.068805 -0.114674
v -0.002816 -0.022935 -0.114674
v -0.002816 -0.068805 -0.068805
v -0.002816 -0.022935 -0.068805
v 0.043053 -0.068805 -0.068805
v -0.094556 -0.252284 0.068805
v -0.094556 -0.206414 0.068805
v -0.048686 -0.206414 0.068805
v -0.094556 -0.206414 0.114674
v -0.094556 -0.160544 0.068805
v -0.048686 -0.160544 0.068805
v -0.094556 -0.160544 0.114674
v -0.094556 -0.068805 0.068805
v -0.094556 -0.022935 0.068805
v -0.048686 -0.068805 0.068805
v -0.048686 -0.022935 0.068805
v -0.094556 -0.068805 0.114674
v -0.094556 -0.022935 0.114674
v -0.048686 -0.068805 0.114674
v -0.048686 -0.022935 0.114674
v -0.002816 -0.160544 0.068805
v -0.002816 -0.068805 0.068805
v -0.002816 -0.022935 0.068805
v 0.043053 -0.068805 0.068805
v -0.002816 -0.068805 0.114674
v -0.002816 -0.022935 0.114674
v -0.094556 0.068805 -0.114674
v -0.048686 0.068805 -0.114674
v -0.094556 0.068805 -0.068805
v -0.048686 0.068805 -0.068805
v -0.094556 0.114674 -0.114674
v -0.094556 0.160544 -0.114674
v -0.048686 0.114674 -0.114674
v -0.048686 0.160544 -0.114674
v -0.094556 0.114674 -0.068805
v -0.094556 0.160544 -0.068805
v -0.048686 0.114674 -0.068805
v -0.048686 0.160544 -0.068805
v -0.002816 0.022935 -0.114674
v -0.002816 0.068805 -0.114674
v 0.043053 0.022935 -0.114674
v 0.043053 0.068805 -0.114674
v -0.002816 0.022935 -0.068805
v -0.002816 0.068805 -0.068805
v 0.043053 0.022935 -0.068805
v 0.043053 0.068805 -0.068805
v -0.002816 0.114674 -0.114674
v -0.002816 0.160544 -0.114674
v 0.043053 0.114674 -0.114674
v -0.002816 0.114674 -0.068805
v -0.002816 0.160544 -0.068805
v 0.043053 0.114674 -0.068805
v -0.094556 0.252283 -0.068805
v -0.094556 0.298153 -0.114674
v -0.048686 0.298153 -0.114674
v -0.094556 0.298153 -0.068805
v -0.094556 0.344023 -0.068805
v -0.048686 0.298153 -0.068805
v 0.043053 0.206414 -0.114674
v -0.002816 0.206414 -0.068805
v 0.043053 0.206414 -0.068805
v 0.088923 0.022935 -0.068805
v 0.088923 0.114674 -0.114674
v 0.088923 0.114674 -0.068805
v 0.134793 0.114674 -0.068805
v 0.088923 0.206414 -0.114674
v 0.088923 0.206414 -0.068805
v 0.134793 0.344023 -0.068805
v -0.094556 0.068805 0.068805
v -0.048686 0.068805 0.068805
v -0.094556 0.068805 0.114674
v -0.048686 0.068805 0.114674
v -0.094556 0.114674 0.068805
v -0.094556 0.160544 0.068805
v -0.048686 0.114674 0.068805
v -0.048686 0.160544 0.068805
v -0.094556 0.114674 0.114674
v -0.094556 0.160544 0.114674
v -0.048686 0.114674 0.114674
v -0.048686 0.160544 0.114674
v -0.002816 0.022935 0.068805
v -0.002816 0.068805 0.068805
v 0.043053 0.022935 0.068805
v 0.043053 0.068805 0.068805
v -0.002816 0.022935 0.114674
v -0.002816 0.068805 0.114674
v 0.043053 0.022935 0.114674
v 0.043053 0.068805 0.114674
v -0.002816 0.114674 0.068805
v -0.002816 0.160544 0.068805
v 0.043053 0.114674 0.068805
v -0.002816 0.114674 0.114674
v -0.002816 0.160544 0.114674
v 0.043053 0.114674 0.114674
v -0.094556 0.252283 0.068805
v -0.048686 0.206414 0.068805
v -0.094556 0.298153 0.068805
v -0.094556 0.344023 0.068805
v -0.048686 0.298153 0.068805
v -0.094556 0.298153 0.114674
v -0.048686 0.298153 0.114674
v -0.002816 0.206414 0.068805
v 0.043053 0.206414 0.068805
v 0.043053 0.206414 0.114674
v 0.088923 0.022935 0.068805
v 0.088923 0.068805 0.068805
v 0.088923 0.114674 0.068805
v 0.134793 0.114674 0.068805
v 0.088923 0.114674 0.114674
v 0.088923 0.206414 0.068805
v 0.134793 0.206414 0.068805
v 0.088923 0.206414 0.114674
v 0.134793 0.344023 0.068805
vn -0.0000 -0.0000 -1.0000
vn 1.0000 -0.0000 -0.0000
vn -1.0000 -0.0000 -0.0000
vn -0.0000 -0.0000 1.0000
vn -0.0000 -1.0000 -0.0000
vn -0.0000 1.0000 -0.0000
s 0
f 3//1 4//1 2//1
f 7//2 4//2 5//2
f 11//1 12//1 10//1
f 21//1 22//1 20//1
f 208//3 227//3 225//3
f 27//4 24//4 26//4
f 82//4 49//4 75//4
f 159//2 144//2 127//2
f 24//1 19//1 18//1
f 138//5 117//5 118//5
f 16//2 12//2 13//2
f 7//1 33//1 6//1
f 16//6 11//6 14//6
f 24//3 21//3 20//3
f 27//2 22//2 23//2
f 22//5 24//5 20//5
f 27//6 21//6 25//6
f 146//2 128//2 129//2
f 24//2 17//2 20//2
f 112//2 99//2 102//2
f 24//6 12//6 15//6
f 12//1 17//1 9//1
f 29//1 30//1 28//1
f 101//3 105//3 111//3
f 168//6 204//6 206//6
f 175//6 211//6 213//6
f 35//4 32//4 34//4
f 206//2 167//2 168//2
f 89//2 45//2 46//2
f 197//2 193//2 196//2
f 184//1 164//1 162//1
f 32//3 29//3 28//3
f 35//2 30//2 31//2
f 30//5 32//5 28//5
f 35//6 29//6 33//6
f 45//3 43//3 42//3
f 43//5 44//5 41//5
f 204//2 183//2 225//2
f 167//1 174//1 173//1
f 191//3 179//3 182//3
f 32//6 4//6 6//6
f 85//2 27//2 40//2
f 32//2 11//2 28//2
f 27//3 39//3 23//3
f 4//1 11//1 1//1
f 53//4 50//4 52//4
f 199//1 146//1 144//1
f 53//2 48//2 49//2
f 62//4 59//4 61//4
f 137//2 116//2 117//2
f 67//1 68//1 66//1
f 73//4 70//4 72//4
f 76//3 35//3 34//3
f 68//4 63//4 64//4
f 62//2 57//2 58//2
f 62//6 56//6 60//6
f 70//3 67//3 66//3
f 73//2 68//2 69//2
f 68//5 70//5 66//5
f 73//6 67//6 71//6
f 70//2 63//2 66//2
f 206//3 226//3 188//3
f 70//6 57//6 61//6
f 70//4 55//4 65//4
f 214//5 174//5 176//5
f 219//3 181//3 180//3
f 75//1 76//1 74//1
f 81//4 78//4 80//4
f 78//3 75//3 74//3
f 81//2 76//2 77//2
f 76//5 78//5 74//5
f 81//6 75//6 79//6
f 91//3 89//3 88//3
f 89//5 90//5 87//5
f 129//2 158//2 160//2
f 36//6 54//6 82//6
f 78//6 48//6 52//6
f 47//5 11//5 14//5
f 76//4 56//4 58//4
f 78//2 56//2 74//2
f 73//3 85//3 69//3
f 188//4 183//4 166//4
f 78//4 47//4 60//4
f 98//6 94//6 97//6
f 99//3 100//3 96//3
f 49//3 8//3 7//3
f 189//1 193//1 179//1
f 109//6 105//6 108//6
f 110//3 112//3 107//3
f 221//2 191//2 233//2
f 234//3 221//3 224//3
f 227//3 187//3 186//3
f 38//6 83//6 84//6
f 82//3 37//3 36//3
f 26//6 66//6 68//6
f 67//2 24//2 25//2
f 129//6 144//6 146//6
f 125//1 131//1 124//1
f 134//4 128//4 133//4
f 127//2 122//2 123//2
f 128//3 125//3 124//3
f 125//5 127//5 123//5
f 134//2 131//2 132//2
f 131//5 128//5 124//5
f 134//6 125//6 129//6
f 187//6 243//6 198//6
f 120//2 115//2 119//2
f 240//5 191//5 197//5
f 242//4 224//4 239//4
f 117//6 69//6 137//6
f 144//5 46//5 127//5
f 107//4 106//4 144//4
f 75//2 32//2 33//2
f 146//1 152//1 145//1
f 156//4 149//4 155//4
f 148//2 143//2 144//2
f 149//3 146//3 145//3
f 146//5 148//5 144//5
f 156//2 152//2 153//2
f 152//5 149//5 145//5
f 156//6 146//6 150//6
f 18//5 63//5 9//5
f 142//2 137//2 140//2
f 213//2 135//2 175//2
f 170//1 171//1 169//1
f 176//4 173//4 175//4
f 212//2 173//2 174//2
f 164//1 177//1 163//1
f 181//4 167//4 180//4
f 160//6 157//6 159//6
f 167//3 164//3 163//3
f 164//5 166//5 162//5
f 173//3 170//3 169//3
f 176//2 171//2 172//2
f 171//5 173//5 169//5
f 176//6 170//6 174//6
f 181//2 177//2 178//2
f 127//3 157//3 123//3
f 165//2 157//2 161//2
f 177//5 167//5 163//5
f 181//6 164//6 168//6
f 47//3 48//3 6//3
f 164//2 188//2 168//2
f 231//4 208//4 210//4
f 102//3 114//3 103//3
f 188//6 184//6 186//6
f 166//3 183//3 184//3
f 45//1 25//1 16//1
f 59//5 12//5 15//5
f 197//4 182//4 194//4
f 193//5 182//5 179//5
f 106//5 97//5 98//5
f 197//6 189//6 191//6
f 176//1 194//1 175//1
f 197//3 237//3 240//3
f 46//6 87//6 89//6
f 97//6 104//6 105//6
f 102//6 111//6 112//6
f 200//5 159//5 160//5
f 160//3 146//3 200//3
f 180//6 205//6 219//6
f 212//1 213//1 211//1
f 218//4 215//4 217//4
f 34//6 74//6 76//6
f 213//3 176//3 175//3
f 206//1 219//1 205//1
f 223//4 209//4 222//4
f 220//5 168//5 181//5
f 238//5 194//5 195//5
f 148//3 199//3 144//3
f 202//6 199//6 201//6
f 209//3 206//3 205//3
f 206//5 208//5 204//5
f 215//3 212//3 211//3
f 218//2 213//2 214//2
f 213//5 215//5 211//5
f 218//6 212//6 216//6
f 223//2 219//2 220//2
f 207//2 199//2 203//2
f 219//5 209//5 205//5
f 223//6 206//6 210//6
f 199//3 165//3 159//3
f 50//3 3//3 2//3
f 68//3 27//3 26//3
f 225//1 229//1 226//1
f 231//6 227//6 230//6
f 210//2 226//2 229//2
f 49//6 3//6 53//6
f 240//4 243//4 229//4
f 236//2 192//2 194//2
f 229//5 186//5 188//5
f 141//2 118//2 121//2
f 242//2 237//2 240//2
f 198//2 241//2 238//2
f 235//5 175//5 192//5
f 137//3 120//3 117//3
f 50//5 4//5 6//5
f 69//5 25//5 27//5
f 236//4 213//4 235//4
f 59//3 56//3 14//3
f 237//5 224//5 221//5
f 150//2 200//2 202//2
f 143//3 127//3 126//3
f 242//6 233//6 234//6
f 232//4 206//4 220//4
f 233//1 237//1 221//1
f 194//6 221//6 237//6
f 27//1 116//1 26//1
f 115//5 27//5 23//5
f 68//2 19//2 26//2
f 43//1 122//1 42//1
f 99//1 98//1 101//1
f 127//4 45//4 126//4
f 120//6 39//6 40//6
f 122//5 45//5 42//5
f 127//6 43//6 46//6
f 39//1 115//1 23//1
f 120//4 27//4 117//4
f 153//5 129//5 134//5
f 55//3 57//3 15//3
f 137//4 68//4 136//4
f 137//5 73//5 69//5
f 152//2 130//2 133//2
f 203//5 102//5 165//5
f 126//6 88//6 143//6
f 89//1 143//1 88//1
f 148//4 91//4 147//4
f 142//6 85//6 86//6
f 143//5 91//5 88//5
f 148//6 89//6 92//6
f 85//1 137//1 69//1
f 142//4 73//4 139//4
f 152//3 134//3 133//3
f 136//5 26//5 116//5
f 157//5 99//5 96//5
f 165//6 100//6 102//6
f 100//1 157//1 96//1
f 165//4 99//4 159//4
f 133//6 145//6 152//6
f 183//6 114//6 225//6
f 154//5 133//5 135//5
f 199//5 110//5 107//5
f 207//6 112//6 113//6
f 112//1 199//1 107//1
f 207//4 110//4 201//4
f 151//5 121//5 130//5
f 89//3 98//3 46//3
f 84//3 93//3 38//3
f 94//1 43//1 41//1
f 105//2 44//2 97//2
f 98//4 44//4 46//4
f 44//3 94//3 41//3
f 98//2 43//2 95//2
f 241//4 237//4 238//4
f 105//1 89//1 87//1
f 109//4 90//4 92//4
f 90//3 105//3 87//3
f 109//2 89//2 106//2
f 197//1 191//1 188//1
f 202//4 148//4 150//4
f 160//4 127//4 129//4
f 157//1 125//1 123//1
f 77//5 33//5 35//5
f 140//5 40//5 120//5
f 159//6 107//6 199//6
f 3//1 5//1 4//1
f 7//2 6//2 4//2
f 11//1 13//1 12//1
f 21//1 23//1 22//1
f 225//3 204//3 208//3
f 208//3 230//3 227//3
f 27//4 25//4 24//4
f 137//4 138//4 141//4
f 141//4 151//4 152//4
f 145//4 146//4 144//4
f 141//4 152//4 145//4
f 140//4 137//4 141//4
f 67//4 69//4 85//4
f 140//4 141//4 145//4
f 85//4 140//4 145//4
f 145//4 144//4 143//4
f 88//4 89//4 87//4
f 85//4 145//4 143//4
f 85//4 143//4 88//4
f 57//4 66//4 67//4
f 67//4 85//4 88//4
f 87//4 105//4 104//4
f 67//4 88//4 87//4
f 58//4 57//4 67//4
f 76//4 58//4 67//4
f 67//4 87//4 104//4
f 84//4 83//4 82//4
f 67//4 104//4 84//4
f 77//4 76//4 67//4
f 48//4 74//4 75//4
f 77//4 67//4 84//4
f 49//4 48//4 75//4
f 75//4 77//4 84//4
f 82//4 54//4 49//4
f 75//4 84//4 82//4
f 159//2 199//2 144//2
f 24//1 26//1 19//1
f 138//5 137//5 117//5
f 16//2 15//2 12//2
f 7//1 8//1 36//1
f 33//1 32//1 6//1
f 7//1 36//1 33//1
f 16//6 13//6 11//6
f 24//3 25//3 21//3
f 27//2 26//2 22//2
f 22//5 26//5 24//5
f 27//6 23//6 21//6
f 146//2 145//2 128//2
f 24//2 18//2 17//2
f 112//2 107//2 99//2
f 24//6 20//6 12//6
f 12//1 20//1 17//1
f 29//1 31//1 30//1
f 101//3 97//3 105//3
f 168//6 166//6 204//6
f 175//6 173//6 211//6
f 35//4 33//4 32//4
f 206//2 205//2 167//2
f 89//2 88//2 45//2
f 197//2 194//2 193//2
f 184//1 185//1 164//1
f 32//3 33//3 29//3
f 35//2 34//2 30//2
f 30//5 34//5 32//5
f 35//6 31//6 29//6
f 45//3 46//3 43//3
f 43//5 46//5 44//5
f 204//2 166//2 183//2
f 160//1 159//1 165//1
f 165//1 102//1 103//1
f 103//1 183//1 166//1
f 166//1 168//1 167//1
f 165//1 103//1 166//1
f 134//1 129//1 160//1
f 160//1 165//1 166//1
f 160//1 166//1 167//1
f 135//1 133//1 134//1
f 134//1 160//1 167//1
f 175//1 135//1 134//1
f 173//1 175//1 134//1
f 181//1 190//1 191//1
f 182//1 176//1 174//1
f 181//1 191//1 182//1
f 180//1 181//1 182//1
f 180//1 182//1 174//1
f 173//1 134//1 167//1
f 167//1 180//1 174//1
f 191//3 189//3 179//3
f 32//6 28//6 4//6
f 85//2 69//2 27//2
f 32//2 14//2 11//2
f 27//3 40//3 39//3
f 4//1 28//1 11//1
f 53//4 51//4 50//4
f 199//1 200//1 146//1
f 53//2 52//2 48//2
f 62//4 60//4 59//4
f 137//2 136//2 116//2
f 67//1 69//1 68//1
f 73//4 71//4 70//4
f 76//3 77//3 35//3
f 68//4 66//4 63//4
f 62//2 61//2 57//2
f 62//6 58//6 56//6
f 70//3 71//3 67//3
f 73//2 72//2 68//2
f 68//5 72//5 70//5
f 73//6 69//6 67//6
f 70//2 65//2 63//2
f 188//3 168//3 206//3
f 226//3 229//3 188//3
f 70//6 66//6 57//6
f 70//4 61//4 55//4
f 214//5 212//5 174//5
f 219//3 220//3 181//3
f 75//1 77//1 76//1
f 81//4 79//4 78//4
f 78//3 79//3 75//3
f 81//2 80//2 76//2
f 76//5 80//5 78//5
f 81//6 77//6 75//6
f 91//3 92//3 89//3
f 89//5 92//5 90//5
f 129//2 125//2 158//2
f 36//6 8//6 54//6
f 78//6 74//6 48//6
f 56//5 60//5 47//5
f 47//5 1//5 11//5
f 14//5 56//5 47//5
f 76//4 74//4 56//4
f 78//2 60//2 56//2
f 73//3 86//3 85//3
f 166//4 168//4 188//4
f 188//4 186//4 183//4
f 78//4 52//4 47//4
f 98//6 95//6 94//6
f 99//3 102//3 100//3
f 49//3 54//3 8//3
f 189//1 196//1 193//1
f 109//6 106//6 105//6
f 110//3 113//3 112//3
f 221//2 182//2 191//2
f 234//3 233//3 221//3
f 227//3 228//3 187//3
f 38//6 37//6 83//6
f 82//3 83//3 37//3
f 26//6 24//6 66//6
f 67//2 66//2 24//2
f 129//6 127//6 144//6
f 125//1 132//1 131//1
f 134//4 129//4 128//4
f 127//2 126//2 122//2
f 128//3 129//3 125//3
f 125//5 129//5 127//5
f 134//2 133//2 131//2
f 131//5 133//5 128//5
f 134//6 132//6 125//6
f 187//6 228//6 243//6
f 120//2 117//2 115//2
f 240//5 233//5 191//5
f 242//4 234//4 224//4
f 117//6 27//6 69//6
f 144//5 89//5 46//5
f 107//4 112//4 111//4
f 111//4 105//4 106//4
f 106//4 89//4 144//4
f 144//4 199//4 107//4
f 107//4 111//4 106//4
f 75//2 74//2 32//2
f 146//1 153//1 152//1
f 156//4 150//4 149//4
f 148//2 147//2 143//2
f 149//3 150//3 146//3
f 146//5 150//5 148//5
f 156//2 155//2 152//2
f 152//5 155//5 149//5
f 156//6 153//6 146//6
f 18//5 19//5 64//5
f 63//5 65//5 55//5
f 18//5 64//5 63//5
f 9//5 17//5 18//5
f 63//5 55//5 9//5
f 142//2 139//2 137//2
f 213//2 154//2 135//2
f 170//1 172//1 171//1
f 176//4 174//4 173//4
f 212//2 211//2 173//2
f 164//1 178//1 177//1
f 181//4 168//4 167//4
f 160//6 158//6 157//6
f 167//3 168//3 164//3
f 164//5 168//5 166//5
f 173//3 174//3 170//3
f 176//2 175//2 171//2
f 171//5 175//5 173//5
f 176//6 172//6 170//6
f 181//2 180//2 177//2
f 127//3 159//3 157//3
f 165//2 159//2 157//2
f 177//5 180//5 167//5
f 181//6 178//6 164//6
f 4//3 1//3 47//3
f 47//3 52//3 48//3
f 6//3 4//3 47//3
f 164//2 185//2 188//2
f 231//4 230//4 208//4
f 102//3 112//3 114//3
f 188//6 185//6 184//6
f 184//3 162//3 166//3
f 183//3 186//3 184//3
f 126//1 127//1 129//1
f 128//1 133//1 130//1
f 126//1 129//1 128//1
f 44//1 46//1 45//1
f 126//1 128//1 130//1
f 45//1 126//1 130//1
f 121//1 118//1 117//1
f 45//1 130//1 121//1
f 93//1 97//1 44//1
f 93//1 44//1 45//1
f 36//1 37//1 38//1
f 38//1 93//1 45//1
f 121//1 117//1 120//1
f 40//1 27//1 25//1
f 45//1 121//1 120//1
f 45//1 120//1 40//1
f 36//1 38//1 45//1
f 35//1 33//1 36//1
f 14//1 32//1 34//1
f 35//1 36//1 45//1
f 16//1 14//1 34//1
f 34//1 35//1 45//1
f 45//1 40//1 25//1
f 25//1 24//1 15//1
f 16//1 34//1 45//1
f 25//1 15//1 16//1
f 57//5 61//5 59//5
f 59//5 10//5 12//5
f 15//5 57//5 59//5
f 197//4 191//4 182//4
f 193//5 194//5 182//5
f 106//5 105//5 97//5
f 197//6 196//6 189//6
f 176//1 182//1 194//1
f 194//1 192//1 175//1
f 197//3 194//3 237//3
f 46//6 44//6 87//6
f 97//6 93//6 104//6
f 102//6 101//6 111//6
f 200//5 199//5 159//5
f 160//3 129//3 146//3
f 180//6 167//6 205//6
f 212//1 214//1 213//1
f 218//4 216//4 215//4
f 34//6 32//6 74//6
f 213//3 214//3 176//3
f 206//1 220//1 219//1
f 223//4 210//4 209//4
f 220//5 206//5 168//5
f 238//5 237//5 194//5
f 148//3 201//3 199//3
f 202//6 200//6 199//6
f 209//3 210//3 206//3
f 206//5 210//5 208//5
f 215//3 216//3 212//3
f 218//2 217//2 213//2
f 213//5 217//5 215//5
f 218//6 214//6 212//6
f 223//2 222//2 219//2
f 207//2 201//2 199//2
f 219//5 222//5 209//5
f 223//6 220//6 206//6
f 199//3 203//3 165//3
f 50//3 51//3 3//3
f 68//3 69//3 27//3
f 206//1 204//1 225//1
f 225//1 227//1 229//1
f 226//1 206//1 225//1
f 231//6 229//6 227//6
f 229//2 231//2 210//2
f 210//2 206//2 226//2
f 7//6 5//6 3//6
f 3//6 51//6 53//6
f 49//6 7//6 3//6
f 205//4 206//4 204//4
f 204//4 225//4 114//4
f 114//4 112//4 203//4
f 203//4 199//4 200//4
f 200//4 146//4 153//4
f 153//4 152//4 154//4
f 154//4 213//4 211//4
f 153//4 154//4 211//4
f 114//4 203//4 200//4
f 200//4 153//4 211//4
f 200//4 211//4 212//4
f 204//4 114//4 200//4
f 205//4 204//4 200//4
f 205//4 200//4 212//4
f 219//4 205//4 212//4
f 214//4 236//4 237//4
f 219//4 212//4 214//4
f 220//4 219//4 214//4
f 214//4 237//4 221//4
f 220//4 214//4 221//4
f 229//4 226//4 232//4
f 232//4 220//4 221//4
f 232//4 221//4 233//4
f 228//4 227//4 229//4
f 229//4 232//4 233//4
f 240//4 241//4 243//4
f 229//4 233//4 240//4
f 243//4 228//4 229//4
f 194//2 237//2 236//2
f 236//2 235//2 192//2
f 229//5 227//5 186//5
f 141//2 138//2 118//2
f 242//2 239//2 237//2
f 238//2 195//2 198//2
f 198//2 243//2 241//2
f 235//5 213//5 175//5
f 137//3 140//3 120//3
f 48//5 52//5 50//5
f 50//5 2//5 4//5
f 6//5 48//5 50//5
f 69//5 67//5 25//5
f 236//4 214//4 213//4
f 11//3 10//3 59//3
f 59//3 60//3 56//3
f 14//3 11//3 59//3
f 237//5 239//5 224//5
f 150//2 146//2 200//2
f 143//3 144//3 127//3
f 242//6 240//6 233//6
f 232//4 226//4 206//4
f 233//1 240//1 237//1
f 194//6 182//6 221//6
f 27//1 117//1 116//1
f 115//5 117//5 27//5
f 68//2 64//2 19//2
f 43//1 123//1 122//1
f 99//1 159//1 127//1
f 127//1 46//1 98//1
f 98//1 97//1 101//1
f 101//1 102//1 99//1
f 99//1 127//1 98//1
f 127//4 46//4 45//4
f 120//6 119//6 39//6
f 122//5 126//5 45//5
f 127//6 123//6 43//6
f 39//1 119//1 115//1
f 120//4 40//4 27//4
f 153//5 146//5 129//5
f 12//3 9//3 55//3
f 55//3 61//3 57//3
f 15//3 12//3 55//3
f 137//4 69//4 68//4
f 137//5 139//5 73//5
f 152//2 151//2 130//2
f 203//5 112//5 102//5
f 126//6 45//6 88//6
f 89//1 144//1 143//1
f 148//4 92//4 91//4
f 142//6 140//6 85//6
f 143//5 147//5 91//5
f 148//6 144//6 89//6
f 85//1 140//1 137//1
f 142//4 86//4 73//4
f 152//3 153//3 134//3
f 136//5 68//5 26//5
f 157//5 159//5 99//5
f 165//6 161//6 100//6
f 100//1 161//1 157//1
f 165//4 102//4 99//4
f 133//6 128//6 145//6
f 183//6 103//6 114//6
f 154//5 152//5 133//5
f 199//5 201//5 110//5
f 207//6 203//6 112//6
f 112//1 203//1 199//1
f 207//4 113//4 110//4
f 151//5 141//5 121//5
f 89//3 106//3 98//3
f 84//3 104//3 93//3
f 94//1 95//1 43//1
f 105//2 87//2 44//2
f 98//4 97//4 44//4
f 44//3 97//3 94//3
f 98//2 46//2 43//2
f 241//4 240//4 237//4
f 105//1 106//1 89//1
f 109//4 108//4 90//4
f 90//3 108//3 105//3
f 109//2 92//2 89//2
f 186//1 187//1 198//1
f 198//1 195//1 194//1
f 198//1 194//1 197//1
f 188//1 186//1 198//1
f 181//1 168//1 188//1
f 190//1 181//1 188//1
f 188//1 198//1 197//1
f 191//1 190//1 188//1
f 202//4 201//4 148//4
f 160//4 159//4 127//4
f 157//1 158//1 125//1
f 77//5 75//5 33//5
f 140//5 85//5 40//5
f 159//6 99//6 107//6
