# Blender 5.2.0 LTS
# www.blender.org
mtllib pixel ak iron.mtl
o 17661950733
v -0.794433 0.022339 -0.069751
v -0.794433 0.115341 -0.069751
v -0.794433 0.115341 -0.023250
v -0.794433 0.208343 -0.023250
v -0.701431 0.022339 -0.116252
v -0.701431 0.068840 -0.116252
v -0.747932 0.022339 -0.069751
v -0.701431 0.068840 -0.069751
v -0.747932 0.115341 -0.069751
v -0.747932 0.115341 -0.023250
v -0.747932 0.208343 -0.023250
v -0.701431 0.254843 -0.069751
v -0.143422 0.022339 -0.116252
v -0.143422 0.068840 -0.116252
v -0.143422 0.068840 -0.069751
v -0.096921 0.022339 -0.116252
v -0.096921 0.068840 -0.116252
v -0.050420 0.022339 -0.116252
v -0.050420 0.068840 -0.116252
v -0.143422 0.254843 -0.069751
v -0.143789 0.254843 -0.023250
v -0.143789 0.301344 -0.023250
v 0.042214 0.254843 -0.023250
v 0.042214 0.301344 -0.023250
v -0.794433 0.022339 0.069751
v -0.794433 0.115341 0.023250
v -0.794433 0.115341 0.069751
v -0.794433 0.208343 0.023250
v -0.747932 0.022339 0.069751
v -0.701431 0.068840 0.069751
v -0.701431 0.022339 0.116252
v -0.701431 0.068840 0.116252
v -0.747932 0.115341 0.023250
v -0.747932 0.115341 0.069751
v -0.747932 0.208343 0.023250
v -0.701431 0.254843 0.069751
v -0.143422 0.068840 0.069751
v -0.143422 0.022339 0.116252
v -0.143422 0.068840 0.116252
v -0.096921 0.022339 0.116252
v -0.096921 0.068840 0.116252
v -0.050420 0.022339 0.116252
v -0.050420 0.068840 0.116252
v -0.143422 0.254843 0.069751
v -0.143789 0.254843 0.023250
v -0.143789 0.301344 0.023250
v 0.042214 0.254843 0.023250
v 0.042214 0.301344 0.023250
v 0.554090 -0.489169 -0.069751
v 0.600591 -0.489169 -0.069751
v 0.507589 -0.303166 -0.069751
v 0.461088 -0.117163 -0.069751
v 0.507589 -0.117163 -0.069751
v 0.600591 -0.442668 -0.069751
v 0.554090 -0.303166 -0.069751
v 0.693592 -0.163664 -0.069751
v 0.786594 -0.442668 -0.069751
v 0.740093 -0.349667 -0.069751
v 0.786594 -0.349667 -0.069751
v 0.740093 -0.163664 -0.069751
v 0.926096 -0.117163 -0.116252
v 1.019098 -0.163664 -0.116252
v 1.019098 -0.117163 -0.116252
v 1.158600 -0.210164 -0.116252
v 1.158600 -0.163664 -0.116252
v 1.251601 -0.256665 -0.116252
v 1.251601 -0.210164 -0.116252
v 1.344603 -0.303166 -0.116252
v 1.437605 -0.303166 -0.116252
v 1.344603 -0.256665 -0.116252
v 0.554090 -0.489169 0.069751
v 0.600591 -0.489169 0.069751
v 0.507589 -0.303166 0.069751
v 0.461088 -0.117163 0.069751
v 0.507589 -0.117163 0.069751
v 0.600591 -0.442668 0.069751
v 0.554090 -0.303166 0.069751
v 0.693592 -0.163664 0.069751
v 0.786594 -0.442668 0.069751
v 0.740093 -0.349667 0.069751
v 0.786594 -0.349667 0.069751
v 0.740093 -0.163664 0.069751
v 0.926096 -0.117163 0.116252
v 1.019098 -0.163664 0.116252
v 1.019098 -0.117163 0.116252
v 1.158600 -0.210164 0.116252
v 1.158600 -0.163664 0.116252
v 1.251601 -0.256665 0.116252
v 1.251601 -0.210164 0.116252
v 1.344603 -0.303166 0.116252
v 1.437605 -0.303166 0.116252
v 1.344603 -0.256665 0.116252
v 0.368087 -0.070662 -0.162753
v 0.368087 -0.024161 -0.162753
v 0.414588 -0.070662 -0.162753
v 0.414588 -0.024161 -0.162753
v 0.461088 -0.024161 -0.069751
v 0.554090 -0.024161 -0.023250
v 0.600591 -0.024161 -0.069751
v 0.600591 -0.024161 -0.023250
v 0.554090 0.022339 -0.023250
v 0.600591 0.022339 -0.069751
v 0.600591 0.022339 -0.023250
v 0.600591 0.068840 -0.023250
v 0.647092 -0.070662 -0.162753
v 0.647092 -0.024161 -0.162753
v 0.647092 -0.024161 -0.116252
v 0.693592 -0.070662 -0.162753
v 0.693592 -0.024161 -0.162753
v 0.693592 -0.024161 -0.116252
v 0.647092 -0.070662 -0.069751
v 0.647092 -0.024161 -0.069751
v 0.693592 -0.070662 -0.069751
v 0.693592 -0.024161 -0.069751
v 0.647092 0.068840 -0.116252
v 0.647092 0.022339 -0.069751
v 0.647092 0.022339 -0.023250
v 0.647092 0.068840 -0.023250
v 0.833095 -0.070662 -0.116252
v 0.833095 -0.024161 -0.116252
v 0.833095 0.068840 -0.116252
v 0.833095 0.115341 -0.116252
v 0.926096 -0.070662 -0.116252
v 1.437605 0.115341 -0.116252
v 0.368087 -0.070662 0.162753
v 0.368087 -0.024161 0.162753
v 0.414588 -0.070662 0.162753
v 0.414588 -0.024161 0.162753
v 0.461088 -0.024161 0.069751
v 0.554090 -0.024161 0.023250
v 0.600591 -0.024161 0.023250
v 0.600591 -0.024161 0.069751
v 0.554090 0.022339 0.023250
v 0.600591 0.022339 0.023250
v 0.600591 0.022339 0.069751
v 0.600591 0.068840 0.023250
v 0.647092 -0.070662 0.069751
v 0.647092 -0.024161 0.069751
v 0.693592 -0.070662 0.069751
v 0.693592 -0.024161 0.069751
v 0.647092 -0.070662 0.162753
v 0.647092 -0.024161 0.116252
v 0.647092 -0.024161 0.162753
v 0.693592 -0.070662 0.162753
v 0.693592 -0.024161 0.116252
v 0.693592 -0.024161 0.162753
v 0.647092 0.022339 0.023250
v 0.647092 0.022339 0.069751
v 0.647092 0.068840 0.023250
v 0.647092 0.068840 0.116252
v 0.833095 -0.070662 0.116252
v 0.833095 -0.024161 0.116252
v 0.833095 0.068840 0.116252
v 0.833095 0.115341 0.116252
v 0.926096 -0.070662 0.116252
v 1.437605 0.115341 0.116252
vn 1.0000 -0.0000 -0.0000
vn -1.0000 -0.0000 -0.0000
vn -0.0000 -0.0000 -1.0000
vn -0.0000 -1.0000 -0.0000
vn -0.0000 1.0000 -0.0000
vn -0.0000 -0.0000 1.0000
s 0
f 128//1 95//1 96//1
f 79//1 59//1 81//1
f 125//2 94//2 93//2
f 13//3 6//3 14//3
f 29//4 1//4 7//4
f 94//5 128//5 96//5
f 10//5 2//5 3//5
f 8//2 5//2 30//2
f 43//1 18//1 19//1
f 17//3 18//3 16//3
f 78//1 113//1 139//1
f 138//1 111//1 112//1
f 99//3 56//3 54//3
f 145//1 144//1 139//1
f 139//4 141//4 137//4
f 123//4 151//4 119//4
f 34//5 26//5 27//5
f 59//5 80//5 81//5
f 36//6 37//6 44//6
f 40//4 18//4 42//4
f 111//4 108//4 113//4
f 43//6 40//6 42//6
f 89//4 64//4 67//4
f 48//6 45//6 47//6
f 20//5 36//5 44//5
f 65//4 84//4 62//4
f 82//1 58//1 60//1
f 76//1 50//1 54//1
f 48//5 22//5 46//5
f 23//4 45//4 21//4
f 153//6 155//6 87//6
f 70//4 88//4 66//4
f 76//6 137//6 132//6
f 24//3 21//3 22//3
f 91//1 124//1 156//1
f 60//5 78//5 82//5
f 88//2 67//2 66//2
f 111//2 112//2 115//2
f 94//3 95//3 93//3
f 110//5 106//5 107//5
f 106//3 108//3 105//3
f 114//6 111//6 113//6
f 142//2 138//2 141//2
f 117//5 102//5 103//5
f 104//3 117//3 103//3
f 100//2 102//2 99//2
f 101//3 100//3 98//3
f 118//5 149//5 153//5
f 77//2 49//2 71//2
f 13//4 31//4 5//4
f 75//4 52//4 53//4
f 110//1 113//1 109//1
f 41//2 16//2 40//2
f 4//3 10//3 3//3
f 84//2 63//2 62//2
f 37//1 38//1 15//1
f 72//4 49//4 50//4
f 69//4 90//4 68//4
f 113//5 137//5 139//5
f 14//5 8//5 15//5
f 90//2 70//2 68//2
f 33//1 29//1 10//1
f 129//2 52//2 74//2
f 128//6 125//6 127//6
f 127//4 93//4 95//4
f 98//5 97//5 129//5
f 35//6 26//6 33//6
f 138//3 139//3 137//3
f 146//5 142//5 143//5
f 146//6 141//6 144//6
f 148//5 134//5 135//5
f 149//6 134//6 147//6
f 132//2 134//2 131//2
f 134//6 130//6 131//6
f 39//5 30//5 32//5
f 152//2 119//2 151//2
f 2//3 7//3 1//3
f 54//4 79//4 76//4
f 32//6 38//6 39//6
f 120//4 140//4 114//4
f 51//2 75//2 53//2
f 83//2 123//2 61//2
f 153//2 122//2 121//2
f 156//5 122//5 154//5
f 86//2 65//2 64//2
f 77//4 51//4 55//4
f 3//2 1//2 26//2
f 35//5 4//5 28//5
f 85//4 61//4 63//4
f 45//2 22//2 21//2
f 48//1 23//1 24//1
f 15//3 12//3 20//3
f 34//6 25//6 29//6
f 17//5 43//5 19//5
f 134//2 104//2 103//2
f 134//5 101//5 133//5
f 130//2 101//2 98//2
f 65//3 123//3 121//3
f 128//1 127//1 95//1
f 79//1 57//1 59//1
f 125//2 126//2 94//2
f 13//3 5//3 6//3
f 29//4 25//4 1//4
f 94//5 126//5 128//5
f 10//5 9//5 2//5
f 8//2 6//2 5//2
f 5//2 31//2 32//2
f 30//2 36//2 12//2
f 5//2 32//2 30//2
f 30//2 12//2 8//2
f 43//1 42//1 18//1
f 17//3 19//3 18//3
f 78//1 56//1 113//1
f 138//1 137//1 111//1
f 55//3 51//3 53//3
f 53//3 52//3 97//3
f 99//3 102//3 116//3
f 53//3 97//3 99//3
f 50//3 49//3 55//3
f 55//3 53//3 99//3
f 99//3 116//3 112//3
f 111//3 113//3 56//3
f 99//3 112//3 111//3
f 54//3 50//3 55//3
f 59//3 57//3 54//3
f 56//3 60//3 58//3
f 58//3 59//3 54//3
f 54//3 55//3 99//3
f 99//3 111//3 56//3
f 56//3 58//3 54//3
f 139//1 140//1 145//1
f 145//1 146//1 144//1
f 139//4 144//4 141//4
f 123//4 155//4 151//4
f 34//5 33//5 26//5
f 59//5 58//5 80//5
f 36//6 30//6 37//6
f 40//4 16//4 18//4
f 111//4 105//4 108//4
f 43//6 41//6 40//6
f 89//4 86//4 64//4
f 48//6 46//6 45//6
f 20//5 12//5 36//5
f 65//4 87//4 84//4
f 82//1 80//1 58//1
f 76//1 72//1 50//1
f 48//5 24//5 22//5
f 23//4 47//4 45//4
f 89//6 88//6 92//6
f 92//6 90//6 91//6
f 91//6 156//6 154//6
f 153//6 150//6 142//6
f 91//6 154//6 153//6
f 89//6 92//6 91//6
f 87//6 86//6 89//6
f 85//6 84//6 87//6
f 155//6 83//6 85//6
f 152//6 151//6 155//6
f 153//6 142//6 145//6
f 153//6 145//6 152//6
f 89//6 91//6 153//6
f 155//6 85//6 87//6
f 87//6 89//6 153//6
f 153//6 152//6 155//6
f 70//4 92//4 88//4
f 77//6 71//6 72//6
f 76//6 79//6 81//6
f 77//6 72//6 76//6
f 75//6 73//6 77//6
f 129//6 74//6 75//6
f 148//6 135//6 132//6
f 132//6 129//6 75//6
f 75//6 77//6 76//6
f 76//6 81//6 80//6
f 80//6 82//6 78//6
f 78//6 139//6 137//6
f 138//6 148//6 132//6
f 80//6 78//6 137//6
f 137//6 138//6 132//6
f 132//6 75//6 76//6
f 76//6 80//6 137//6
f 24//3 23//3 21//3
f 91//1 69//1 124//1
f 60//5 56//5 78//5
f 88//2 89//2 67//2
f 106//2 105//2 111//2
f 107//2 106//2 111//2
f 117//2 118//2 115//2
f 116//2 117//2 115//2
f 115//2 107//2 111//2
f 112//2 116//2 115//2
f 94//3 96//3 95//3
f 110//5 109//5 106//5
f 106//3 109//3 108//3
f 114//6 112//6 111//6
f 150//2 149//2 147//2
f 150//2 147//2 148//2
f 141//2 143//2 142//2
f 142//2 150//2 148//2
f 138//2 137//2 141//2
f 142//2 148//2 138//2
f 117//5 116//5 102//5
f 104//3 118//3 117//3
f 100//2 103//2 102//2
f 101//3 103//3 100//3
f 153//5 121//5 115//5
f 118//5 104//5 136//5
f 153//5 115//5 118//5
f 149//5 150//5 153//5
f 118//5 136//5 149//5
f 77//2 55//2 49//2
f 13//4 38//4 31//4
f 75//4 74//4 52//4
f 110//1 114//1 113//1
f 113//1 108//1 109//1
f 41//2 17//2 16//2
f 4//3 11//3 10//3
f 84//2 85//2 63//2
f 37//1 39//1 38//1
f 38//1 13//1 14//1
f 15//1 20//1 44//1
f 38//1 14//1 15//1
f 15//1 44//1 37//1
f 72//4 71//4 49//4
f 69//4 91//4 90//4
f 113//5 111//5 137//5
f 14//5 6//5 8//5
f 90//2 92//2 70//2
f 33//1 34//1 29//1
f 29//1 7//1 9//1
f 10//1 11//1 35//1
f 29//1 9//1 10//1
f 10//1 35//1 33//1
f 129//2 97//2 52//2
f 128//6 126//6 125//6
f 127//4 125//4 93//4
f 98//5 100//5 99//5
f 129//5 132//5 131//5
f 129//5 131//5 130//5
f 98//5 99//5 97//5
f 129//5 130//5 98//5
f 35//6 28//6 26//6
f 138//3 140//3 139//3
f 146//5 145//5 142//5
f 146//6 143//6 141//6
f 148//5 147//5 134//5
f 149//6 136//6 134//6
f 132//2 135//2 134//2
f 134//6 133//6 130//6
f 39//5 37//5 30//5
f 152//2 120//2 119//2
f 2//3 9//3 7//3
f 54//4 57//4 79//4
f 32//6 31//6 38//6
f 114//4 110//4 120//4
f 120//4 152//4 145//4
f 140//4 138//4 112//4
f 120//4 145//4 140//4
f 140//4 112//4 114//4
f 51//2 73//2 75//2
f 83//2 155//2 123//2
f 153//2 154//2 122//2
f 156//5 124//5 122//5
f 86//2 87//2 65//2
f 77//4 73//4 51//4
f 3//2 2//2 1//2
f 1//2 25//2 27//2
f 26//2 28//2 4//2
f 1//2 27//2 26//2
f 26//2 4//2 3//2
f 35//5 11//5 4//5
f 85//4 83//4 61//4
f 45//2 46//2 22//2
f 48//1 47//1 23//1
f 15//3 8//3 12//3
f 34//6 27//6 25//6
f 17//5 41//5 43//5
f 134//2 136//2 104//2
f 134//5 103//5 101//5
f 130//2 133//2 101//2
f 124//3 69//3 68//3
f 70//3 66//3 67//3
f 124//3 68//3 70//3
f 121//3 122//3 124//3
f 107//3 115//3 121//3
f 110//3 107//3 121//3
f 121//3 124//3 70//3
f 67//3 64//3 65//3
f 121//3 70//3 67//3
f 120//3 110//3 121//3
f 123//3 119//3 120//3
f 63//3 61//3 123//3
f 65//3 62//3 63//3
f 121//3 67//3 65//3
f 123//3 120//3 121//3
f 65//3 63//3 123//3
o 17662005180.002
v -1.467372 0.090147 -0.023194
v -1.467372 0.136535 -0.023194
v -1.420983 0.090147 -0.023194
v -1.420983 0.136535 -0.023194
v -1.420983 0.275701 -0.023194
v -1.374594 0.043758 -0.023194
v -1.328206 0.043758 -0.023194
v -1.374594 0.136535 -0.023194
v -1.328206 0.136535 -0.023194
v -1.374594 0.275701 -0.023194
v -1.049874 0.090147 -0.023194
v -1.049874 0.136535 -0.023194
v -1.003485 0.136535 -0.023194
v -0.957097 0.090147 -0.023194
v -0.957097 0.136535 -0.023194
v -0.910708 0.136535 -0.023194
v -1.003485 0.182924 -0.023194
v -0.910708 0.182924 -0.023194
v -0.748176 0.043758 -0.023194
v -0.701787 0.043758 -0.023194
v -0.748176 0.182924 -0.023194
v -0.701787 0.182924 -0.023194
v -0.562621 0.136535 -0.069583
v -0.469844 0.136535 -0.069583
v -0.562621 0.182924 -0.069583
v -0.469844 0.182924 -0.069583
v -0.423455 0.136535 -0.069583
v -0.330678 0.136535 -0.069583
v -0.423455 0.182924 -0.069583
v -0.330678 0.182924 -0.069583
v -1.467372 0.090147 0.023194
v -1.467372 0.136535 0.023194
v -1.420983 0.090147 0.023194
v -1.420983 0.136535 0.023194
v -1.420983 0.275701 0.023194
v -1.374594 0.043758 0.023194
v -1.328206 0.043758 0.023194
v -1.374594 0.136535 0.023194
v -1.328206 0.136535 0.023194
v -1.374594 0.275701 0.023194
v -1.049874 0.090147 0.023194
v -1.049874 0.136535 0.023194
v -1.003485 0.136535 0.023194
v -0.957097 0.090147 0.023194
v -0.957097 0.136535 0.023194
v -0.910708 0.136535 0.023194
v -1.003485 0.182924 0.023194
v -0.910708 0.182924 0.023194
v -0.748176 0.043758 0.023194
v -0.701787 0.043758 0.023194
v -0.748176 0.182924 0.023194
v -0.701787 0.182924 0.023194
v -0.562621 0.136535 0.069583
v -0.469844 0.136535 0.069583
v -0.562621 0.182924 0.069583
v -0.469844 0.182924 0.069583
v -0.423455 0.136535 0.069583
v -0.330678 0.136535 0.069583
v -0.423455 0.182924 0.069583
v -0.330678 0.182924 0.069583
v 0.040671 0.022014 -0.162360
v 0.040671 0.068403 -0.162360
v -0.052587 0.253957 -0.023194
v -0.052587 0.300346 -0.023194
v 0.040671 0.022014 0.162360
v 0.040671 0.068403 0.162360
v -0.052587 0.253957 0.023194
v -0.052587 0.300346 0.023194
v 1.437304 -0.302706 -0.115972
v 1.483693 -0.302706 -0.115972
v 1.437304 -0.302706 0.115972
v 1.483693 -0.302706 0.115972
v 0.086579 0.207569 -0.069583
v 0.086579 0.253957 -0.069583
v 0.086579 0.253957 -0.023194
v 0.132968 0.253957 -0.023194
v 0.132968 0.300346 -0.023194
v 0.365391 0.022014 -0.162360
v 0.365391 0.068403 -0.162360
v 0.643243 0.207569 -0.069583
v 0.643243 0.253957 -0.069583
v 1.437304 0.114792 -0.115972
v 1.483693 0.114792 -0.115972
v 0.086579 0.207569 0.069583
v 0.086579 0.253957 0.023194
v 0.086579 0.253957 0.069583
v 0.132968 0.253957 0.023194
v 0.132968 0.300346 0.023194
v 0.365391 0.022014 0.162360
v 0.365391 0.068403 0.162360
v 0.643243 0.207569 0.069583
v 0.643243 0.253957 0.069583
v 1.437304 0.114792 0.115972
v 1.483693 0.114792 0.115972
vn -0.0000 -0.0000 -1.0000
vn -1.0000 -0.0000 -0.0000
vn -0.0000 -0.0000 1.0000
vn -0.0000 -1.0000 -0.0000
vn -0.0000 1.0000 -0.0000
vn 1.0000 -0.0000 -0.0000
s 0
f 158//7 159//7 157//7
f 192//8 164//8 162//8
f 190//9 187//9 189//9
f 210//10 179//10 180//10
f 171//7 167//7 169//7
f 216//11 185//11 215//11
f 199//9 201//9 204//9
f 164//7 163//7 162//7
f 161//7 164//7 160//7
f 213//10 184//10 214//10
f 182//11 211//11 212//11
f 216//9 213//9 214//9
f 208//9 205//9 206//9
f 212//12 180//12 182//12
f 196//9 190//9 194//9
f 186//7 183//7 185//7
f 181//7 180//7 179//7
f 209//8 181//8 179//8
f 213//8 185//8 183//8
f 211//9 210//9 212//9
f 187//8 158//8 157//8
f 190//12 159//12 160//12
f 159//10 187//10 157//10
f 190//11 158//11 188//11
f 193//12 165//12 195//12
f 163//10 192//10 162//10
f 206//12 178//12 208//12
f 195//11 164//11 194//11
f 190//8 161//8 160//8
f 197//8 168//8 167//8
f 201//12 170//12 171//12
f 172//10 201//10 171//10
f 177//8 205//8 207//8
f 170//10 197//10 167//10
f 204//11 173//11 203//11
f 176//10 205//10 175//10
f 208//11 177//11 207//11
f 199//8 173//8 169//8
f 204//12 172//12 174//12
f 199//11 168//11 198//11
f 216//12 184//12 186//12
f 177//7 176//7 175//7
f 164//10 190//10 160//10
f 196//11 161//11 191//11
f 164//12 196//12 194//12
f 195//9 192//9 193//9
f 158//7 160//7 159//7
f 192//8 194//8 164//8
f 190//9 188//9 187//9
f 210//10 209//10 179//10
f 169//7 173//7 174//7
f 174//7 172//7 171//7
f 171//7 170//7 167//7
f 167//7 168//7 169//7
f 169//7 174//7 171//7
f 216//11 186//11 185//11
f 199//9 198//9 197//9
f 197//9 200//9 201//9
f 201//9 202//9 204//9
f 204//9 203//9 199//9
f 199//9 197//9 201//9
f 164//7 165//7 163//7
f 161//7 166//7 164//7
f 213//10 183//10 184//10
f 182//11 181//11 211//11
f 216//9 215//9 213//9
f 208//9 207//9 205//9
f 212//12 210//12 180//12
f 196//9 191//9 190//9
f 186//7 184//7 183//7
f 181//7 182//7 180//7
f 209//8 211//8 181//8
f 213//8 215//8 185//8
f 211//9 209//9 210//9
f 187//8 188//8 158//8
f 190//12 189//12 159//12
f 159//10 189//10 187//10
f 190//11 160//11 158//11
f 193//12 163//12 165//12
f 163//10 193//10 192//10
f 206//12 176//12 178//12
f 195//11 165//11 164//11
f 190//8 191//8 161//8
f 197//8 198//8 168//8
f 201//12 200//12 170//12
f 172//10 202//10 201//10
f 177//8 175//8 205//8
f 170//10 200//10 197//10
f 204//11 174//11 173//11
f 176//10 206//10 205//10
f 208//11 178//11 177//11
f 199//8 203//8 173//8
f 204//12 202//12 172//12
f 199//11 169//11 168//11
f 216//12 214//12 184//12
f 177//7 178//7 176//7
f 164//10 194//10 190//10
f 196//11 166//11 161//11
f 164//12 166//12 196//12
f 195//9 194//9 192//9
f 245//12 235//12 246//12
f 240//8 241//8 231//8
f 220//7 232//7 231//7
f 222//9 245//9 246//9
f 237//7 229//7 230//7
f 235//7 217//7 218//7
f 242//9 247//9 248//9
f 227//10 226//10 228//10
f 227//8 238//8 225//8
f 246//11 218//11 222//11
f 221//8 218//8 217//8
f 249//9 228//9 250//9
f 241//10 219//10 231//10
f 238//7 226//7 225//7
f 233//11 224//11 244//11
f 238//11 250//11 239//11
f 240//10 236//10 247//10
f 248//12 236//12 237//12
f 224//9 241//9 243//9
f 228//12 239//12 250//12
f 245//10 217//10 234//10
f 232//11 243//11 248//11
f 223//8 220//8 219//8
f 244//12 232//12 233//12
f 245//12 234//12 235//12
f 230//8 229//8 240//8
f 240//8 242//8 241//8
f 231//8 230//8 240//8
f 231//7 219//7 220//7
f 220//7 233//7 232//7
f 222//9 221//9 245//9
f 237//7 236//7 229//7
f 235//7 234//7 217//7
f 242//9 240//9 247//9
f 227//10 225//10 226//10
f 227//8 249//8 238//8
f 246//11 235//11 218//11
f 221//8 222//8 218//8
f 249//9 227//9 228//9
f 241//10 223//10 219//10
f 238//7 239//7 226//7
f 233//11 220//11 224//11
f 238//11 249//11 250//11
f 240//10 229//10 236//10
f 248//12 247//12 236//12
f 243//9 244//9 224//9
f 224//9 223//9 241//9
f 228//12 226//12 239//12
f 245//10 221//10 217//10
f 248//11 237//11 230//11
f 230//11 231//11 232//11
f 243//11 241//11 242//11
f 248//11 230//11 232//11
f 243//11 242//11 248//11
f 223//8 224//8 220//8
f 244//12 243//12 232//12
